<?xml version="1.0" standalone="no"?>
<!DOCTYPE svg PUBLIC "-//W3C//DTD SVG 20010904//EN"
 "http://www.w3.org/TR/2001/REC-SVG-20010904/DTD/svg10.dtd">
<svg version="1.0" xmlns="http://www.w3.org/2000/svg"
 width="143.000000pt" height="143.000000pt" viewBox="0 0 143.000000 143.000000"
 preserveAspectRatio="xMidYMid meet">
<metadata>
Created by potrace 1.11, written by Peter Selinger 2001-2013
</metadata>
<g transform="translate(0.000000,143.000000) scale(0.100000,-0.100000)"
fill="#000000" stroke="none">
<path d="M0 715 l0 -715 715 0 715 0 0 715 0 715 -715 0 -715 0 0 -715z m1330
-10 l0 -605 -605 0 -605 0 0 605 0 605 605 0 605 0 0 -605z"/>
<path d="M290 1067 c0 -4 33 -72 72 -152 84 -168 84 -180 -5 -152 -30 9 -57
17 -61 17 -3 0 10 -32 30 -71 l36 -72 -36 -70 c-20 -39 -34 -73 -32 -75 3 -2
25 17 50 43 l45 48 22 -45 21 -44 -71 -142 c-39 -78 -71 -144 -71 -147 0 -3
68 -5 151 -5 83 0 149 3 147 8 -2 4 -34 67 -71 139 -37 73 -67 141 -67 150 1
10 14 43 29 73 l29 54 32 -67 c18 -37 36 -67 39 -67 4 0 36 29 71 65 35 36 67
65 70 65 3 0 37 -94 75 -210 40 -122 73 -206 78 -201 5 5 28 48 51 96 l41 86
94 -96 c52 -52 96 -93 98 -91 3 2 -28 70 -68 150 -85 169 -85 181 4 153 74
-23 80 -22 54 16 -12 18 -30 51 -40 73 l-19 41 36 71 36 71 -72 3 -73 3 -24
43 -24 44 79 79 c43 43 80 77 82 75 2 -2 -22 -54 -52 -115 -31 -61 -56 -114
-55 -118 0 -10 138 259 138 272 1 5 -43 -34 -97 -88 l-97 -97 -48 97 -49 96
-106 -106 -107 -107 -36 107 -36 108 -49 -98 -49 -97 -97 97 c-54 54 -98 94
-98 90z m624 -105 l45 -89 -114 -113 c-63 -63 -116 -112 -118 -110 -2 3 -19
50 -37 104 l-33 99 104 99 c57 54 105 98 106 98 2 0 23 -40 47 -88z m-297 -16
l31 -94 -33 -32 -32 -31 -46 41 -46 42 42 84 c23 46 44 84 47 84 3 0 20 -42
37 -94z m-157 -117 l-23 -43 -58 114 c-32 63 -58 119 -58 125 -1 5 35 -27 80
-71 l81 -81 -22 -44z m75 -10 l38 -41 -34 -33 c-28 -27 -38 -32 -56 -25 -32
13 -39 53 -18 101 10 21 21 39 24 39 4 0 24 -18 46 -41z m448 6 c9 -20 17 -38
17 -40 0 -3 -27 -5 -60 -5 l-61 0 37 40 c21 22 40 40 44 40 3 0 14 -16 23 -35z
m-299 -80 c14 -43 22 -83 18 -87 -8 -8 -129 27 -145 42 -11 10 13 60 29 60 7
0 21 -11 32 -24 10 -14 34 -37 53 -52 19 -15 7 0 -26 34 l-59 62 29 30 c16 17
32 27 36 23 3 -5 18 -44 33 -88z m-276 -10 c2 -2 -6 -22 -19 -46 l-22 -43 -28
54 c-15 30 -28 58 -29 62 0 6 88 -19 98 -27z m492 -25 c33 -65 36 -88 18 -112
-12 -15 -20 -15 -93 9 -44 14 -82 27 -84 29 -4 4 119 134 126 134 2 0 16 -27
33 -60z m100 53 c-1 -5 -14 -33 -29 -63 l-29 -54 -31 62 -31 62 60 0 c33 0 60
-3 60 -7z m140 0 c-1 -5 -14 -33 -29 -63 l-29 -54 -30 59 c-17 33 -31 56 -31
50 0 -5 13 -35 28 -65 l29 -55 -24 -47 c-13 -27 -27 -48 -30 -48 -19 0 -43 24
-58 58 -18 39 -18 40 9 93 15 30 32 60 37 67 11 13 128 18 128 5z m-690 -24
c0 -6 -4 -7 -10 -4 -5 3 -10 11 -10 16 0 6 5 7 10 4 6 -3 10 -11 10 -16z m80
-50 c-19 -36 -24 -40 -32 -26 -5 10 -6 22 -2 29 4 7 3 8 -4 4 -7 -4 -12 -2
-12 4 0 6 10 8 28 4 15 -4 24 -3 20 1 -4 5 -3 14 4 22 21 25 20 5 -2 -38z
m-69 20 l21 -21 -43 -44 c-39 -40 -45 -43 -56 -28 -10 13 -7 26 13 65 13 27
29 49 34 49 6 0 19 -9 31 -21z m177 -50 c39 -12 72 -26 72 -29 0 -3 -28 -34
-63 -68 l-62 -62 -33 60 c-17 33 -32 67 -32 76 0 24 20 56 33 51 7 -2 45 -15
85 -28z m-143 -8 c4 -12 -6 -44 -26 -83 l-32 -63 -20 43 -21 42 39 40 c44 45
51 48 60 21z m-115 -54 c0 -7 -14 -25 -31 -41 l-30 -29 22 46 c21 42 39 53 39
24z m464 -7 c28 -9 51 -21 53 -26 1 -5 -6 -20 -17 -34 l-19 -25 -58 55 c-32
30 -10 5 49 -55 l106 -110 -41 -82 c-23 -46 -44 -83 -47 -83 -9 0 -130 372
-124 382 6 9 12 8 98 -22z m126 -23 c0 -4 -12 -5 -27 -2 -22 4 -20 2 7 -8 48
-19 59 -53 35 -106 -10 -23 -21 -41 -24 -41 -4 0 -25 18 -46 40 l-39 40 33 67
c33 67 33 67 47 43 7 -14 13 -28 14 -33z m170 -59 c0 -6 -88 19 -98 27 -2 2 6
22 19 46 l22 43 28 -54 c15 -30 28 -58 29 -62z m-120 11 c0 -6 -4 -7 -10 -4
-5 3 -10 11 -10 16 0 6 5 7 10 4 6 -3 10 -11 10 -16z m-524 -150 c30 -62 60
-122 65 -135 l9 -24 -135 0 -135 0 67 135 c37 74 69 135 70 135 2 0 28 -50 59
-111z m622 -110 c-2 -5 -36 24 -76 64 l-74 74 22 44 23 43 54 -108 c30 -59 53
-112 51 -117z"/>
</g>
</svg>
